<svg width="100" height="18" viewBox="0 0 100 18" fill="none" xmlns="http://www.w3.org/2000/svg">
<path d="M8.51318 0.486816L10.4245 6.36928H16.6097L11.6058 10.0048L13.5171 15.8873L8.51318 12.2517L3.50926 15.8873L5.42059 10.0048L0.416665 6.36928H6.60185L8.51318 0.486816Z" fill="#FDDA1C"/>
<path d="M29.2568 0.486816L31.1682 6.36928H37.3534L32.3494 10.0048L34.2608 15.8873L29.2568 12.2517L24.2529 15.8873L26.1642 10.0048L21.1603 6.36928H27.3455L29.2568 0.486816Z" fill="#FDDA1C"/>
<path d="M50 0.486816L51.9113 6.36928H58.0965L53.0926 10.0048L55.0039 15.8873L50 12.2517L44.9961 15.8873L46.9074 10.0048L41.9035 6.36928H48.0887L50 0.486816Z" fill="#FDDA1C"/>
<path d="M70.7432 0.486816L72.6545 6.36928H78.8397L73.8358 10.0048L75.7471 15.8873L70.7432 12.2517L65.7392 15.8873L67.6506 10.0048L62.6466 6.36928H68.8318L70.7432 0.486816Z" fill="#FDDA1C"/>
<path d="M91.4868 0.486816L93.3981 6.36928H99.5833L94.5794 10.0048L96.4907 15.8873L91.4868 12.2517L86.4829 15.8873L88.3942 10.0048L83.3903 6.36928H89.5755L91.4868 0.486816Z" fill="#FDDA1C"/>
</svg>
